<?xml version="1.0" standalone="no"?>
<!DOCTYPE svg PUBLIC "-//W3C//DTD SVG 20010904//EN"
 "http://www.w3.org/TR/2001/REC-SVG-20010904/DTD/svg10.dtd">
<svg version="1.0" xmlns="http://www.w3.org/2000/svg"
 width="700.000000pt" height="700.000000pt" viewBox="0 0 700.000000 700.000000"
 preserveAspectRatio="xMidYMid meet">
<metadata>
Created by potrace 1.11, written by Peter Selinger 2001-2013
</metadata>
<g transform="translate(0.000000,700.000000) scale(0.100000,-0.100000)"
fill="#000000" stroke="none">
<path d="M1849 5503 c0 -5 -2 -15 -4 -23 -2 -8 -6 -28 -8 -45 -11 -64 -58
-341 -63 -370 -3 -16 -7 -37 -9 -45 -2 -8 -7 -33 -10 -55 -3 -23 -8 -52 -10
-65 -3 -14 -8 -41 -11 -60 -2 -19 -7 -46 -10 -60 -2 -14 -7 -38 -9 -55 -8 -48
-15 -88 -19 -111 -2 -12 -7 -39 -10 -60 -6 -36 -20 -119 -30 -169 -7 -38 -19
-110 -21 -125 -1 -8 -4 -28 -8 -45 -4 -16 -9 -50 -12 -75 -3 -25 -8 -52 -10
-60 -2 -8 -22 -123 -45 -255 -22 -132 -42 -251 -45 -265 -6 -31 -51 -293 -71
-415 -22 -130 -23 -138 -28 -160 -2 -11 -11 -63 -20 -115 -9 -52 -18 -104 -20
-115 -2 -11 -7 -40 -11 -65 -4 -25 -9 -52 -10 -61 -2 -9 -6 -33 -9 -53 -3 -19
-13 -75 -21 -123 -9 -49 -18 -99 -20 -113 -3 -24 -13 -82 -34 -200 -17 -95
-77 -446 -85 -500 -5 -29 -11 -68 -20 -125 0 -6 684 -10 1983 -10 l1985 0 7
27 c4 15 10 47 13 70 3 24 16 95 27 158 12 63 22 124 24 135 4 29 44 266 49
291 5 26 15 87 21 129 3 17 12 68 20 115 9 47 18 99 21 115 8 47 61 358 94
553 17 97 33 191 36 207 3 17 14 82 25 145 39 225 68 396 73 430 3 19 8 46 11
60 3 14 8 41 11 60 3 19 7 46 10 60 2 14 26 156 54 315 27 160 52 301 54 315
3 14 21 120 40 235 20 116 38 221 41 235 2 13 7 42 11 65 3 22 14 87 25 144
10 58 19 113 19 123 0 17 -77 18 -1985 18 -1092 0 -1985 -3 -1986 -7z"/>
</g>
</svg>
